<?xml version="1.0" encoding="UTF-8" standalone="no"?>
<!DOCTYPE svg PUBLIC "-//W3C//DTD SVG 1.1//EN"
 "http://www.w3.org/Graphics/SVG/1.1/DTD/svg11.dtd">
<!-- Generated by graphviz version 2.38.0 (20140413.2041)
 -->
<!-- Title: models_diagram Pages: 1 -->
<svg width="484pt" height="461pt"
 viewBox="0.00 0.00 484.00 461.00" xmlns="http://www.w3.org/2000/svg" xmlns:xlink="http://www.w3.org/1999/xlink">
<g id="graph0" class="graph" transform="scale(1 1) rotate(0) translate(4 457)">
<title>models_diagram</title>
<polygon fill="none" stroke="none" points="-4,4 -4,-457 480,-457 480,4 -4,4"/>
<!-- _diagram_info -->
<g id="node1" class="node"><title>_diagram_info</title>
<text text-anchor="start" x="8" y="-409.1" font-family="Times,serif" font-size="13.00">Models diagram</text>
<text text-anchor="start" x="8" y="-395.1" font-family="Times,serif" font-size="13.00">Date: Apr 14 2016 &#45; 20:09</text>
<text text-anchor="start" x="8" y="-381.1" font-family="Times,serif" font-size="13.00">Migration version: 20160414031301</text>
<text text-anchor="start" x="8" y="-367.1" font-family="Times,serif" font-size="13.00">Generated by RailRoady 1.4.2</text>
<text text-anchor="start" x="8" y="-353.1" font-family="Times,serif" font-size="13.00">http://railroady.prestonlee.com</text>
</g>
<!-- List -->
<g id="node2" class="node"><title>List</title>
<path fill="none" stroke="black" d="M244,-173.5C244,-173.5 464,-173.5 464,-173.5 470,-173.5 476,-179.5 476,-185.5 476,-185.5 476,-267.5 476,-267.5 476,-273.5 470,-279.5 464,-279.5 464,-279.5 244,-279.5 244,-279.5 238,-279.5 232,-273.5 232,-267.5 232,-267.5 232,-185.5 232,-185.5 232,-179.5 238,-173.5 244,-173.5"/>
<text text-anchor="middle" x="354" y="-264.3" font-family="Times,serif" font-size="14.00">List</text>
<polyline fill="none" stroke="black" points="232,-256.5 476,-256.5 "/>
<text text-anchor="start" x="240" y="-241.3" font-family="Times,serif" font-size="14.00">id :integer</text>
<text text-anchor="start" x="240" y="-226.3" font-family="Times,serif" font-size="14.00">title :character varying</text>
<text text-anchor="start" x="240" y="-211.3" font-family="Times,serif" font-size="14.00">created_at :timestamp without time zone</text>
<text text-anchor="start" x="240" y="-196.3" font-family="Times,serif" font-size="14.00">updated_at :timestamp without time zone</text>
<text text-anchor="start" x="240" y="-181.3" font-family="Times,serif" font-size="14.00">user_id :integer</text>
</g>
<!-- Task -->
<g id="node4" class="node"><title>Task</title>
<path fill="none" stroke="black" d="M244,-0.5C244,-0.5 464,-0.5 464,-0.5 470,-0.5 476,-6.5 476,-12.5 476,-12.5 476,-124.5 476,-124.5 476,-130.5 470,-136.5 464,-136.5 464,-136.5 244,-136.5 244,-136.5 238,-136.5 232,-130.5 232,-124.5 232,-124.5 232,-12.5 232,-12.5 232,-6.5 238,-0.5 244,-0.5"/>
<text text-anchor="middle" x="354" y="-121.3" font-family="Times,serif" font-size="14.00">Task</text>
<polyline fill="none" stroke="black" points="232,-113.5 476,-113.5 "/>
<text text-anchor="start" x="240" y="-98.3" font-family="Times,serif" font-size="14.00">id :integer</text>
<text text-anchor="start" x="240" y="-83.3" font-family="Times,serif" font-size="14.00">title :character varying</text>
<text text-anchor="start" x="240" y="-68.3" font-family="Times,serif" font-size="14.00">note :text</text>
<text text-anchor="start" x="240" y="-53.3" font-family="Times,serif" font-size="14.00">completed :boolean</text>
<text text-anchor="start" x="240" y="-38.3" font-family="Times,serif" font-size="14.00">created_at :timestamp without time zone</text>
<text text-anchor="start" x="240" y="-23.3" font-family="Times,serif" font-size="14.00">updated_at :timestamp without time zone</text>
<text text-anchor="start" x="240" y="-8.3" font-family="Times,serif" font-size="14.00">list_id :integer</text>
</g>
<!-- List&#45;&gt;Task -->
<g id="edge1" class="edge"><title>List&#45;&gt;Task</title>
<path fill="none" stroke="#49eaba" d="M354,-165.06C354,-159.108 354,-153.013 354,-146.922"/>
<ellipse fill="none" stroke="#49eaba" cx="354" cy="-169.12" rx="4" ry="4"/>
<polygon fill="#49eaba" stroke="#49eaba" points="354,-146.701 358.5,-136.701 354,-141.701 354,-136.701 354,-136.701 354,-136.701 354,-141.701 349.5,-136.701 354,-146.701 354,-146.701"/>
</g>
<!-- User -->
<g id="node3" class="node"><title>User</title>
<path fill="none" stroke="black" d="M244,-316.5C244,-316.5 464,-316.5 464,-316.5 470,-316.5 476,-322.5 476,-328.5 476,-328.5 476,-440.5 476,-440.5 476,-446.5 470,-452.5 464,-452.5 464,-452.5 244,-452.5 244,-452.5 238,-452.5 232,-446.5 232,-440.5 232,-440.5 232,-328.5 232,-328.5 232,-322.5 238,-316.5 244,-316.5"/>
<text text-anchor="middle" x="354" y="-437.3" font-family="Times,serif" font-size="14.00">User</text>
<polyline fill="none" stroke="black" points="232,-429.5 476,-429.5 "/>
<text text-anchor="start" x="240" y="-414.3" font-family="Times,serif" font-size="14.00">id :integer</text>
<text text-anchor="start" x="240" y="-399.3" font-family="Times,serif" font-size="14.00">name :character varying</text>
<text text-anchor="start" x="240" y="-384.3" font-family="Times,serif" font-size="14.00">last_name :character varying</text>
<text text-anchor="start" x="240" y="-369.3" font-family="Times,serif" font-size="14.00">username :character varying</text>
<text text-anchor="start" x="240" y="-354.3" font-family="Times,serif" font-size="14.00">email :character varying</text>
<text text-anchor="start" x="240" y="-339.3" font-family="Times,serif" font-size="14.00">created_at :timestamp without time zone</text>
<text text-anchor="start" x="240" y="-324.3" font-family="Times,serif" font-size="14.00">updated_at :timestamp without time zone</text>
</g>
<!-- User&#45;&gt;List -->
<g id="edge2" class="edge"><title>User&#45;&gt;List</title>
<path fill="none" stroke="#d3ca1f" d="M354,-308.376C354,-302.209 354,-296.017 354,-289.957"/>
<ellipse fill="none" stroke="#d3ca1f" cx="354" cy="-312.437" rx="4" ry="4"/>
<polygon fill="#d3ca1f" stroke="#d3ca1f" points="354,-289.907 358.5,-279.907 354,-284.907 354,-279.907 354,-279.907 354,-279.907 354,-284.907 349.5,-279.907 354,-289.907 354,-289.907"/>
</g>
</g>
</svg>
